<?xml version="1.0" encoding="utf-8"?>
<svg width="48" height="48" xmlns="http://www.w3.org/2000/svg" xmlns:bx="https://boxy-svg.com" viewBox="0 0 48 48"><defs><bx:export><bx:file format="svg" path="logo.svg"/><bx:file format="png" width="128" height="128" path="logo_128.png"/><bx:file format="png" width="96" height="96" path="logo_96.png"/><bx:file format="png" width="64" height="64" path="logo_64.png"/><bx:file format="png" path="logo_48.png" width="48" height="48"/><bx:file format="png" path="logo_32.png" width="32" height="32"/><bx:file format="png" path="logo_24.png" width="24" height="24"/><bx:file format="png" path="logo_16.png" width="16" height="16"/></bx:export></defs><g><title>Layer 1</title><rect stroke="null" x="0.07877" y="0.25703" id="svg_1" ry="8.7" height="47.54044" width="47.63235" style="fill: rgb(33, 33, 33);"/><circle id="svg_2" stroke-width="2.5" fill="none" r="3.363" cy="32.94" cx="7.931" style="stroke: rgb(211, 47, 47);" transform="matrix(1.101169, 0, 0, 1.105718, -0.948482, -3.860065)"/><path stroke="null" id="svg_3" d="M 21.082 8.878 C 20.287 8.878 19.693 9.406 19.693 10.1 L 19.693 13.305 L 14.597 13.801 C 13.836 13.9 13.439 14.33 13.439 15.089 C 13.439 15.784 13.936 16.28 14.53 16.245 L 14.762 16.213 L 19.693 15.75 L 19.693 18.097 L 15.556 18.526 C 14.83 18.625 14.399 19.055 14.399 19.748 C 14.399 20.41 14.862 20.872 15.457 20.838 L 15.656 20.806 L 27.238 19.649 C 27.966 19.583 28.362 19.154 28.362 18.459 C 28.362 17.799 27.932 17.336 27.27 17.336 L 27.072 17.336 L 22.473 17.832 L 22.473 15.452 L 28.394 14.858 C 29.122 14.793 29.521 14.33 29.521 13.603 C 29.521 12.909 29.09 12.446 28.394 12.446 L 28.197 12.446 L 22.473 13.039 L 22.473 10.1 C 22.473 9.406 21.91 8.878 21.084 8.878 L 21.082 8.878 Z M 5.168 9.372 C 4.639 9.372 4.208 9.802 4.208 10.363 C 4.208 10.793 4.374 11.025 4.937 11.355 C 6.294 12.148 7.716 13.04 8.079 13.272 C 8.642 13.702 8.906 13.8 9.303 13.8 C 10.031 13.8 10.661 13.173 10.661 12.478 C 10.661 11.817 10.296 11.388 9.237 10.825 C 7.683 10.065 5.829 9.372 5.168 9.372 Z M 11.742 14.72 C 11.701 14.719 11.659 14.721 11.619 14.725 L 1.992 15.618 C 1.33 15.684 0.966 16.113 0.966 16.84 C 0.966 17.6 1.494 18.096 2.189 18.029 L 11.818 17.106 C 12.447 17.039 12.876 16.609 12.876 16.016 C 12.876 15.302 12.353 14.733 11.742 14.72 Z M 10.418 19.379 C 10.378 19.379 10.338 19.38 10.296 19.384 L 3.911 19.979 C 3.349 20.045 2.951 20.475 2.951 21.07 C 2.951 21.797 3.48 22.293 4.141 22.226 L 10.462 21.631 C 11.09 21.566 11.487 21.136 11.487 20.475 C 11.487 19.825 11.022 19.378 10.418 19.379 Z M 28.625 21.599 L 15.49 23.019 C 15.325 22.325 15.092 22.095 14.564 22.095 C 13.936 22.095 13.638 22.393 13.572 23.086 C 13.406 24.409 13.208 25.499 12.909 26.391 C 12.744 26.886 12.711 27.02 12.711 27.218 C 12.711 27.912 13.307 28.439 14.035 28.439 C 15.127 28.439 15.59 27.481 15.623 25.168 L 26.972 23.946 L 27.17 23.946 C 27.402 23.946 27.501 24.044 27.501 24.21 C 27.501 24.441 27.17 25.168 26.675 25.926 C 26.509 26.224 26.442 26.391 26.442 26.588 C 26.442 27.051 26.839 27.447 27.336 27.447 C 27.832 27.447 28.03 27.249 29.056 25.961 C 30.147 24.507 30.61 23.581 30.61 22.855 C 30.61 22.095 29.983 21.599 29.023 21.599 L 28.625 21.599 Z M 10.418 23.608 C 10.378 23.608 10.336 23.61 10.296 23.616 L 3.944 24.243 C 3.315 24.309 2.951 24.738 2.951 25.4 C 2.951 26.06 3.513 26.588 4.141 26.522 L 10.527 25.863 C 11.123 25.797 11.52 25.332 11.52 24.672 C 11.52 24.052 11.025 23.606 10.418 23.608 Z M 23.201 25.729 C 22.406 25.729 21.876 26.158 21.842 26.885 L 21.512 34.917 L 21.479 35.512 C 21.412 36.733 21.876 37.56 22.836 37.857 C 23.398 38.055 24.325 38.122 26.045 38.122 C 29.984 38.122 31.207 37.56 31.207 35.808 C 31.207 35.081 31.008 33.397 30.744 32.042 C 30.61 31.315 30.313 31.017 29.751 31.017 C 29.188 31.017 28.956 31.314 28.956 32.108 C 28.956 35.346 28.791 35.544 26.475 35.544 C 24.523 35.544 24.292 35.445 24.225 34.553 L 24.225 34.388 L 24.491 26.921 C 24.523 26.226 23.994 25.729 23.201 25.729 Z M 18.533 26.721 C 17.773 26.721 17.376 27.052 17.276 27.746 C 16.714 31.711 15.491 34.289 13.176 36.206 C 12.778 36.536 12.611 36.834 12.611 37.163 C 12.611 37.626 13.074 38.089 13.505 38.089 C 13.77 38.089 14.002 38.023 14.399 37.758 C 16.02 36.866 17.443 35.247 18.436 33.231 C 19.163 31.711 19.857 29.234 19.857 28.077 C 19.857 27.218 19.362 26.721 18.533 26.721 Z" style="fill: rgb(255, 255, 255);"/><text transform="matrix(0.681282, 0, 0, 0.711104, -2.627952, 25.526237)" id="svg_4" style="fill: rgb(211, 47, 47); font-family: &quot;Noto Sans JP&quot;; font-size: 24px; paint-order: fill; stroke: rgb(211, 47, 47); stroke-width: 2.44185px; white-space: pre;" x="47.2923" y="-4.02056">＋</text><text transform="matrix(0.98505, 0, 0, 1, -19.633787, -25.267458)" id="svg_6" style="fill: rgb(211, 47, 47); font-family: &quot;Noto Sans JP&quot;; font-size: 24px; font-weight: 700; paint-order: fill; stroke-miterlimit: 5.11; stroke-opacity: 0.87; stroke-width: 12.0904px; white-space: pre; transform-box: fill-box; transform-origin: 50% 50%;" x="50.3481" y="63.0639">α</text></g></svg>